<svg width="266" height="382" viewBox="0 0 266 382" fill="none" xmlns="http://www.w3.org/2000/svg">
<path d="M250.374 345.605C258.658 345.605 265.374 352.321 265.374 360.605V366.052C265.374 374.336 258.658 381.052 250.374 381.052H15C6.71576 381.052 5.04965e-05 374.336 0 366.052L0 360.605C0 352.321 6.71573 345.605 15 345.605H250.374ZM245.374 0C256.42 0 265.374 8.95431 265.374 20V23.1982C265.374 23.3643 265.37 23.5299 265.363 23.6943C265.37 23.8979 265.375 24.1023 265.375 24.3076V210.265C265.375 210.671 265.36 211.074 265.333 211.474C265.36 211.872 265.374 212.274 265.374 212.68C265.374 222.468 257.44 230.403 247.651 230.403H150.379V345.604H114.996V230.403H17.7236C7.93531 230.403 0 222.468 0 212.68C4.92391e-07 212.651 0.000843212 212.623 0.000976562 212.595C0.000846456 212.567 5.19521e-08 212.539 0 212.511L0 26.5537C0 25.9351 0.0317989 25.3239 0.09375 24.7217C0.0318534 24.2227 0 23.714 0 23.1982L0 20C3.26021e-06 8.95431 8.95431 3.76911e-07 20 0L245.374 0ZM35.3838 194.957H114.996V94.7549C114.996 86.4708 121.712 79.7549 129.996 79.7549H135.379C143.663 79.7549 150.379 86.4708 150.379 94.7549V194.957H229.992V35.4463H35.3838V194.957Z" fill="#242424"/>
</svg>
